<?xml version="1.0" encoding="utf-8"?>
<!-- Generator: Adobe Illustrator 21.1.0, SVG Export Plug-In . SVG Version: 6.00 Build 0)  -->
<svg version="1.1" id="Layer_1" xmlns="http://www.w3.org/2000/svg" xmlns:xlink="http://www.w3.org/1999/xlink" x="0px" y="0px"
	 viewBox="0 0 49.4 49.4" style="enable-background:new 0 0 49.4 49.4;" xml:space="preserve">
<style type="text/css">
	.st0{fill:#3B7837;}
</style>
<g>
	<path class="st0" d="M24.7,0C14.5,0,5.1,6.6,1.5,16.2C-2.1,25.9,1,37.2,9,43.8c8,6.6,19.6,7.5,28.5,2.1C46.3,40.6,51,30,49,19.8
		c-2-10-10.3-17.9-20.4-19.5C27.3,0.1,26,0,24.7,0z M43.4,15.2c0.1,0.3,0.3,0.5,0.4,0.8c-1.2,1.8-3.7,4.9-4.3,5.2
		C41.8,18.5,42.9,16.6,43.4,15.2z M13,26.8c-1.2,0-2.4-0.3-3.5-0.9c-0.2-0.1-0.5-0.3-0.6-0.5c-3.4-4-1.4-10.5,5-18.7
		c0.7-0.4,1.3-0.8,2-1.1C11.8,10.7,8.1,16,9.3,23.1c0.1,0.3,0.4,0.8,0.5,0.9c0.8,1.1,4.3,1.4,4.4,1c0,0-0.6-1.5-0.8-2.1
		c-0.1-0.5-0.3-1.3-0.4-1.8c-0.9-4.2,0.5-5.7,3-8.6c-2.9,6.9-1.1,9.9-0.5,11.8c0.1,0.5,0.3,0.6,0.3,0.6c1.5-0.1,2.8-0.4,4-0.9
		c0,0,0-0.1,0-0.1l-0.8-1.3c-1.3-3-0.5-5.9,0.1-9.1c0.5-2.7,3.7-7,5.3-9.8c2.1-0.2,4.6,0.3,6.6,1c2.1,0.7,4.1,1.7,5.8,2.9
		c-1.6,2.6-3,6-4.5,8.1c-2.9,3.9-6.1,7.3-10.7,9.5c-2.9,1.4-5.7,1.5-8.5,1.6H13z M19,35.1c2.9-0.8,5.5-1.4,8-2.3
		c5.3-1.9,10.4-4.7,14.3-8.7c1.1-1.1,2.8-2.6,3.9-3.9c0.4,1.6,0.6,3.3,0.5,4.9C37.8,32,26,36.8,19,35.1z M39.9,39.1
		c-3.5,0.6-3.3,1.4-10.1,0.9c6.3-1.1,9-2.5,13.2-5.1C42.2,36.5,41.1,37.9,39.9,39.1z"/>
</g>
</svg>
