<?xml version="1.0" encoding="utf-8"?>
<!-- Generator: Adobe Illustrator 21.1.0, SVG Export Plug-In . SVG Version: 6.00 Build 0)  -->
<svg version="1.1" id="Layer_2" xmlns="http://www.w3.org/2000/svg" xmlns:xlink="http://www.w3.org/1999/xlink" x="0px" y="0px"
	 viewBox="0 0 49.5 49.5" style="enable-background:new 0 0 49.5 49.5;" xml:space="preserve">
<style type="text/css">
	.st0{fill:#1986AD;}
</style>
<g>
	<path class="st0" d="M13.7,6.8L13.7,6.8C13.8,6.9,13.8,6.9,13.7,6.8L13.7,6.8z"/>
	<path class="st0" d="M24.7,0C14.5,0,5.1,6.6,1.5,16.2C-2.1,25.9,1,37.2,9,43.8c8,6.6,19.6,7.5,28.5,2.1c8.9-5.4,13.6-16,11.5-26.1
		C47,9.8,38.7,1.9,28.6,0.3C27.3,0.1,26,0,24.7,0z M43.2,34.7c-1.9,3.5-4.8,6.4-8.3,8.4l-3.2-7.6v9.1c-4.9,1.8-10.5,1.6-15.3-0.5
		l5-6.3v-6.9h-5.3l-6.6,8.4c-2.7-2.8-4.6-6.4-5.4-10.4l7.6-4h-8c0-3.8,1-7.3,2.8-10.4l8.4,1.4l-6.3-4.5c1.4-1.7,3.2-3.2,5.1-4.3
		l0-0.1l0.1,0c1.8-1.1,3.7-1.9,5.8-2.4l2.3,2.4l0.4-2.9c2.8-0.3,5.6-0.1,8.3,0.7v2.2l2.5-1.2C38.7,8,43,12.8,44.8,18.6l-1,1.4v1.8
		l1.7,0.4c0.4,3.3,0,6.7-1.1,9.8l-1.6-1.2h-2.6L43.2,34.7z"/>
</g>
<path class="st0" d="M45,26.5l-8.4-5.9l6.2-4.9h-7.4l1.1-7.6l-6.3,4.5l-4.1-7.8l-1.8,8.5L13.8,6.8l-0.1,0l0,0.1l6.6,10.7L8.5,20
	l12.1,2.6L12,30.2l12.3-3.1v14.1L29.5,28l8.3,7.4l-2.4-10.3L45,26.5z M32.3,26.1l-3-2.7l-1.9,4.8v-5.1L23,24.2l3.1-2.8l-4.4-1
	l4.3-0.9l-2.4-3.9l3.8,2.4l0.7-3.1l1.5,2.8l2.3-1.6l-0.4,2.7h2.7l-2.2,1.8l3.1,2.1l-3.5-0.5L32.3,26.1z"/>
</svg>
