<?xml version="1.0" encoding="utf-8"?>
<!-- Generator: Adobe Illustrator 21.1.0, SVG Export Plug-In . SVG Version: 6.00 Build 0)  -->
<svg version="1.1" id="Layer_2" xmlns="http://www.w3.org/2000/svg" xmlns:xlink="http://www.w3.org/1999/xlink" x="0px" y="0px"
	 viewBox="0 0 49.5 49.5" style="enable-background:new 0 0 49.5 49.5;" xml:space="preserve">
<style type="text/css">
	.st0{fill:#C41313;}
</style>
<g>
	<path class="st0" d="M24.7,0C14.5,0,5.1,6.6,1.5,16.2C-2.1,25.9,1,37.2,9,43.8c8,6.6,19.6,7.5,28.5,2.1c8.9-5.4,13.6-16,11.5-26.1
		C47,9.8,38.7,1.9,28.6,0.3C27.3,0.1,26,0,24.7,0z M27.6,45.5l-1.9-2.6c-0.2-0.2-0.6-0.2-0.8,0l-1.5,2.7c-2-0.1-3.9-0.5-5.7-1.2
		l0.1-4.8c0-0.3-0.3-0.5-0.6-0.3l-4,2.8c-1.3-0.8-2.5-1.8-3.5-3l2.3-3.3c0.1-0.1,0.1-0.3,0.1-0.5l-0.1-1.1c0-0.3-0.3-0.6-0.7-0.6h-1
		c-0.1,0-0.1,0-0.2,0l-3.6,1.1c-2.3-4.1-3.1-9-2.3-13.7l7,6.8c2,4,5.4,9,9.5,9.8l3.1-5l0-3.1l4.5-5.5l-0.5-1.4l-3.1,0l-3-1.9l0-1.2
		h1l2.1,2l2.9,0l1.1-1.1l2.9,0.1l0.2,0.9l-3,4.6l-0.1,1.4l1.1,1.1l2.1-0.1l5.7-8.9l0.1-2.5l-10.1-5.6l-3.9,0l-1,0.9l-2,0.1l-6.3-6.3
		c4.7-2.7,10.3-3.4,15.5-2.1l0.9,5.9c0,0.2,0.2,0.4,0.4,0.4h1.2c0.1,0,0.3-0.1,0.4-0.2l2.3-4c1.7,1,3.3,2.2,4.7,3.6l-1.1,2.6
		c0,0.1-0.1,0.2,0,0.3l0,0.9c0,0.4,0.4,0.8,0.8,0.8h0.6c0.1,0,0.2,0,0.2-0.1l2-1.2c1,1.5,1.8,3.2,2.4,5l-1.9,2
		c-0.1,0.1-0.2,0.3-0.2,0.5v0.4c0,0.3,0.2,0.5,0.4,0.7l2.5,0.6C46.8,33.8,38.5,44,27.6,45.5z"/>
</g>
<g id="Layer_3">
	<polygon class="st0" points="23.8,34.8 22.8,35.8 22.8,37.7 26.9,41.6 29.7,41.8 30.6,40.7 30.6,38.8 25.7,34.8 	"/>
	<polygon class="st0" points="24.7,31.7 32.8,38.7 34.7,38.7 35.7,37.7 35.7,35.8 27.7,28.8 26.8,28.8 24.7,30.8 	"/>
	<polygon class="st0" points="32.8,30.8 36.8,34.8 39.5,34.8 40.7,33.7 40.7,32.8 35.6,27.8 34.8,27.8 32.7,29.8 	"/>
	<polygon class="st0" points="37.7,22.9 35.7,24.7 35.7,25.8 39.7,29.8 41.7,29.8 42.7,28.8 42.7,26.7 38.7,22.9 	"/>
</g>
</svg>
